<mxfile host="app.diagrams.net" modified="2024-01-11T05:19:43.631Z" agent="Mozilla/5.0 (Windows NT 10.0; Win64; x64) AppleWebKit/537.36 (KHTML, like Gecko) Chrome/120.0.0.0 Safari/537.36 Edg/120.0.0.0" etag="41vuKdv_0-bE8W0EShlm" version="22.1.18" type="github">
  <diagram name="Page-1" id="5f0bae14-7c28-e335-631c-24af17079c00">
    <mxGraphModel dx="1631" dy="933" grid="1" gridSize="10" guides="1" tooltips="1" connect="1" arrows="1" fold="1" page="1" pageScale="1" pageWidth="1100" pageHeight="850" background="none" math="0" shadow="0">
      <root>
        <mxCell id="0" />
        <mxCell id="1" parent="0" />
        <mxCell id="OZHb4zPASjDrgLWmTo2S-56" style="edgeStyle=orthogonalEdgeStyle;rounded=0;orthogonalLoop=1;jettySize=auto;html=1;exitX=0.5;exitY=0;exitDx=0;exitDy=0;" edge="1" parent="1" source="OZHb4zPASjDrgLWmTo2S-1">
          <mxGeometry relative="1" as="geometry">
            <mxPoint x="305.17647058823536" y="129.9411764705883" as="targetPoint" />
          </mxGeometry>
        </mxCell>
        <mxCell id="OZHb4zPASjDrgLWmTo2S-1" value="&lt;b style=&quot;font-size: 22px;&quot;&gt;&lt;font style=&quot;font-size: 22px;&quot;&gt;Root&lt;/font&gt;&lt;/b&gt;" style="rounded=1;whiteSpace=wrap;html=1;fillColor=#d5e8d4;strokeColor=#82b366;strokeWidth=3;fontSize=22;" vertex="1" parent="1">
          <mxGeometry x="245" y="120" width="120" height="50" as="geometry" />
        </mxCell>
        <mxCell id="OZHb4zPASjDrgLWmTo2S-5" value="&lt;font style=&quot;font-size: 22px;&quot;&gt;&lt;span style=&quot;font-size: 22px;&quot;&gt;Nav&lt;/span&gt;&lt;/font&gt;" style="rounded=1;whiteSpace=wrap;html=1;fillColor=#b0e3e6;strokeColor=#0e8088;strokeWidth=3;verticalAlign=middle;fontSize=22;fontStyle=1" vertex="1" parent="1">
          <mxGeometry x="65" y="233" width="120" height="50" as="geometry" />
        </mxCell>
        <mxCell id="OZHb4zPASjDrgLWmTo2S-6" value="Contents" style="rounded=1;whiteSpace=wrap;html=1;fillColor=#b0e3e6;strokeColor=#0e8088;strokeWidth=3;verticalAlign=middle;fontSize=22;fontStyle=1" vertex="1" parent="1">
          <mxGeometry x="405" y="233" width="120" height="50" as="geometry" />
        </mxCell>
        <mxCell id="OZHb4zPASjDrgLWmTo2S-7" value="TodoItem" style="rounded=1;whiteSpace=wrap;html=1;fontSize=17;strokeWidth=3;fillColor=#fff2cc;strokeColor=#d6b656;" vertex="1" parent="1">
          <mxGeometry x="774" y="650" width="120" height="50" as="geometry" />
        </mxCell>
        <mxCell id="OZHb4zPASjDrgLWmTo2S-8" value="PostIt" style="rounded=1;whiteSpace=wrap;html=1;fontSize=17;strokeWidth=3;fillColor=#fff2cc;strokeColor=#d6b656;" vertex="1" parent="1">
          <mxGeometry x="245" y="520" width="120" height="50" as="geometry" />
        </mxCell>
        <mxCell id="OZHb4zPASjDrgLWmTo2S-9" value="Calender" style="rounded=1;whiteSpace=wrap;html=1;fontSize=17;strokeWidth=3;fillColor=#fff2cc;strokeColor=#d6b656;" vertex="1" parent="1">
          <mxGeometry x="245" y="331" width="120" height="50" as="geometry" />
        </mxCell>
        <mxCell id="OZHb4zPASjDrgLWmTo2S-55" value="" style="edgeStyle=orthogonalEdgeStyle;rounded=1;orthogonalLoop=1;jettySize=auto;html=1;strokeWidth=3;dashed=1;fillColor=#e1d5e7;strokeColor=#9673a6;entryX=0.347;entryY=1.023;entryDx=0;entryDy=0;entryPerimeter=0;curved=0;" edge="1" parent="1" source="OZHb4zPASjDrgLWmTo2S-10" target="OZHb4zPASjDrgLWmTo2S-54">
          <mxGeometry relative="1" as="geometry" />
        </mxCell>
        <mxCell id="OZHb4zPASjDrgLWmTo2S-10" value="Todo" style="rounded=1;whiteSpace=wrap;html=1;fontSize=17;strokeWidth=3;fillColor=#fff2cc;strokeColor=#d6b656;" vertex="1" parent="1">
          <mxGeometry x="575" y="330" width="120" height="50" as="geometry" />
        </mxCell>
        <mxCell id="OZHb4zPASjDrgLWmTo2S-12" value="TodoCount" style="rounded=1;whiteSpace=wrap;html=1;fontSize=17;strokeWidth=3;fillColor=#fff2cc;strokeColor=#d6b656;" vertex="1" parent="1">
          <mxGeometry x="575" y="520" width="120" height="50" as="geometry" />
        </mxCell>
        <mxCell id="OZHb4zPASjDrgLWmTo2S-13" value="TodoInputForm" style="rounded=1;whiteSpace=wrap;html=1;fontSize=17;strokeWidth=3;fillColor=#fff2cc;strokeColor=#d6b656;" vertex="1" parent="1">
          <mxGeometry x="425" y="520" width="120" height="50" as="geometry" />
        </mxCell>
        <mxCell id="OZHb4zPASjDrgLWmTo2S-14" value="TodoInputForm" style="rounded=1;whiteSpace=wrap;html=1;fontSize=17;strokeWidth=3;fillColor=#fff2cc;strokeColor=#d6b656;" vertex="1" parent="1">
          <mxGeometry x="774" y="520" width="120" height="50" as="geometry" />
        </mxCell>
        <mxCell id="OZHb4zPASjDrgLWmTo2S-16" value="" style="endArrow=none;html=1;rounded=0;entryX=0.5;entryY=1;entryDx=0;entryDy=0;exitX=0.5;exitY=0;exitDx=0;exitDy=0;edgeStyle=orthogonalEdgeStyle;strokeColor=default;curved=0;strokeWidth=3;" edge="1" parent="1" source="OZHb4zPASjDrgLWmTo2S-5" target="OZHb4zPASjDrgLWmTo2S-1">
          <mxGeometry width="50" height="50" relative="1" as="geometry">
            <mxPoint x="225" y="450" as="sourcePoint" />
            <mxPoint x="275" y="400" as="targetPoint" />
          </mxGeometry>
        </mxCell>
        <mxCell id="OZHb4zPASjDrgLWmTo2S-34" value="" style="endArrow=none;html=1;rounded=0;entryX=0.5;entryY=1;entryDx=0;entryDy=0;exitX=0.5;exitY=0;exitDx=0;exitDy=0;edgeStyle=orthogonalEdgeStyle;strokeWidth=3;" edge="1" parent="1" source="OZHb4zPASjDrgLWmTo2S-6" target="OZHb4zPASjDrgLWmTo2S-1">
          <mxGeometry width="50" height="50" relative="1" as="geometry">
            <mxPoint x="435" y="560" as="sourcePoint" />
            <mxPoint x="485" y="510" as="targetPoint" />
          </mxGeometry>
        </mxCell>
        <mxCell id="OZHb4zPASjDrgLWmTo2S-35" value="" style="endArrow=none;html=1;rounded=0;exitX=0.5;exitY=0;exitDx=0;exitDy=0;entryX=0.5;entryY=1;entryDx=0;entryDy=0;edgeStyle=orthogonalEdgeStyle;strokeWidth=3;" edge="1" parent="1" source="OZHb4zPASjDrgLWmTo2S-9" target="OZHb4zPASjDrgLWmTo2S-6">
          <mxGeometry width="50" height="50" relative="1" as="geometry">
            <mxPoint x="475" y="330" as="sourcePoint" />
            <mxPoint x="525" y="280" as="targetPoint" />
            <Array as="points">
              <mxPoint x="305" y="310" />
              <mxPoint x="465" y="310" />
            </Array>
          </mxGeometry>
        </mxCell>
        <mxCell id="OZHb4zPASjDrgLWmTo2S-36" value="" style="endArrow=none;html=1;rounded=0;exitX=0.5;exitY=0;exitDx=0;exitDy=0;edgeStyle=orthogonalEdgeStyle;strokeWidth=3;" edge="1" parent="1" source="OZHb4zPASjDrgLWmTo2S-10">
          <mxGeometry width="50" height="50" relative="1" as="geometry">
            <mxPoint x="595" y="400" as="sourcePoint" />
            <mxPoint x="465" y="290" as="targetPoint" />
          </mxGeometry>
        </mxCell>
        <mxCell id="OZHb4zPASjDrgLWmTo2S-38" value="" style="endArrow=none;html=1;rounded=0;entryX=0.5;entryY=1;entryDx=0;entryDy=0;exitX=0.5;exitY=0;exitDx=0;exitDy=0;edgeStyle=orthogonalEdgeStyle;strokeWidth=3;fontSize=17;" edge="1" parent="1" source="OZHb4zPASjDrgLWmTo2S-8" target="OZHb4zPASjDrgLWmTo2S-9">
          <mxGeometry width="50" height="50" relative="1" as="geometry">
            <mxPoint x="205" y="441" as="sourcePoint" />
            <mxPoint x="255" y="391" as="targetPoint" />
          </mxGeometry>
        </mxCell>
        <mxCell id="OZHb4zPASjDrgLWmTo2S-39" value="" style="endArrow=none;html=1;rounded=0;entryX=0.5;entryY=1;entryDx=0;entryDy=0;exitX=0.5;exitY=0;exitDx=0;exitDy=0;edgeStyle=orthogonalEdgeStyle;strokeWidth=3;fontSize=17;" edge="1" parent="1" source="OZHb4zPASjDrgLWmTo2S-13" target="OZHb4zPASjDrgLWmTo2S-10">
          <mxGeometry width="50" height="50" relative="1" as="geometry">
            <mxPoint x="485" y="560" as="sourcePoint" />
            <mxPoint x="535" y="510" as="targetPoint" />
          </mxGeometry>
        </mxCell>
        <mxCell id="OZHb4zPASjDrgLWmTo2S-40" value="" style="endArrow=none;html=1;rounded=0;exitX=0.5;exitY=0;exitDx=0;exitDy=0;edgeStyle=orthogonalEdgeStyle;strokeWidth=3;fontSize=17;" edge="1" parent="1" source="OZHb4zPASjDrgLWmTo2S-12">
          <mxGeometry width="50" height="50" relative="1" as="geometry">
            <mxPoint x="615" y="560" as="sourcePoint" />
            <mxPoint x="635" y="380" as="targetPoint" />
          </mxGeometry>
        </mxCell>
        <mxCell id="OZHb4zPASjDrgLWmTo2S-41" value="" style="endArrow=none;html=1;rounded=0;exitX=0.5;exitY=0;exitDx=0;exitDy=0;edgeStyle=orthogonalEdgeStyle;strokeWidth=3;fontSize=17;" edge="1" parent="1" source="OZHb4zPASjDrgLWmTo2S-14">
          <mxGeometry width="50" height="50" relative="1" as="geometry">
            <mxPoint x="765" y="550" as="sourcePoint" />
            <mxPoint x="635" y="380" as="targetPoint" />
          </mxGeometry>
        </mxCell>
        <mxCell id="OZHb4zPASjDrgLWmTo2S-42" value="" style="endArrow=none;html=1;rounded=0;entryX=0.5;entryY=1;entryDx=0;entryDy=0;exitX=0.5;exitY=0;exitDx=0;exitDy=0;strokeWidth=3;fontSize=17;" edge="1" parent="1" source="OZHb4zPASjDrgLWmTo2S-7" target="OZHb4zPASjDrgLWmTo2S-14">
          <mxGeometry width="50" height="50" relative="1" as="geometry">
            <mxPoint x="824" y="640" as="sourcePoint" />
            <mxPoint x="874" y="590" as="targetPoint" />
          </mxGeometry>
        </mxCell>
        <mxCell id="OZHb4zPASjDrgLWmTo2S-54" value="&lt;b style=&quot;font-size: 22px;&quot;&gt;&lt;font style=&quot;font-size: 22px;&quot;&gt;Store.js&lt;/font&gt;&lt;/b&gt;" style="whiteSpace=wrap;html=1;fontSize=22;fillColor=#f8cecc;strokeColor=#b85450;rounded=1;strokeWidth=4;fontFamily=Helvetica;" vertex="1" parent="1">
          <mxGeometry x="735" y="140" width="120" height="60" as="geometry" />
        </mxCell>
        <mxCell id="OZHb4zPASjDrgLWmTo2S-57" value="&lt;b style=&quot;font-size: 17px;&quot;&gt;Local&lt;br&gt;storage&lt;/b&gt;" style="shape=cylinder3;whiteSpace=wrap;html=1;boundedLbl=1;backgroundOutline=1;size=15;strokeWidth=3;fillColor=#dae8fc;strokeColor=#6c8ebf;" vertex="1" parent="1">
          <mxGeometry x="935" y="123" width="100" height="80" as="geometry" />
        </mxCell>
        <mxCell id="OZHb4zPASjDrgLWmTo2S-58" style="edgeStyle=orthogonalEdgeStyle;rounded=0;orthogonalLoop=1;jettySize=auto;html=1;entryX=0.02;entryY=0.588;entryDx=0;entryDy=0;entryPerimeter=0;strokeWidth=3;" edge="1" parent="1" source="OZHb4zPASjDrgLWmTo2S-54" target="OZHb4zPASjDrgLWmTo2S-57">
          <mxGeometry relative="1" as="geometry" />
        </mxCell>
        <mxCell id="OZHb4zPASjDrgLWmTo2S-59" value="" style="endArrow=classic;html=1;rounded=1;exitX=0.75;exitY=1;exitDx=0;exitDy=0;edgeStyle=orthogonalEdgeStyle;fillColor=#e1d5e7;strokeColor=#9673a6;strokeWidth=3;dashed=1;entryX=0.7;entryY=1.05;entryDx=0;entryDy=0;entryPerimeter=0;curved=0;" edge="1" parent="1" source="OZHb4zPASjDrgLWmTo2S-9" target="OZHb4zPASjDrgLWmTo2S-54">
          <mxGeometry width="50" height="50" relative="1" as="geometry">
            <mxPoint x="335" y="401" as="sourcePoint" />
            <mxPoint x="875" y="230" as="targetPoint" />
            <Array as="points">
              <mxPoint x="335" y="400" />
              <mxPoint x="819" y="400" />
            </Array>
          </mxGeometry>
        </mxCell>
        <mxCell id="OZHb4zPASjDrgLWmTo2S-81" value="&lt;h1&gt;&lt;font style=&quot;font-size: 16px;&quot;&gt;todo list 관리&lt;/font&gt;&lt;/h1&gt;" style="text;html=1;strokeColor=none;fillColor=none;spacing=5;spacingTop=-20;whiteSpace=wrap;overflow=hidden;rounded=0;align=left;verticalAlign=middle;" vertex="1" parent="1">
          <mxGeometry x="830" y="203" width="120" height="32" as="geometry" />
        </mxCell>
        <mxCell id="OZHb4zPASjDrgLWmTo2S-129" style="edgeStyle=orthogonalEdgeStyle;rounded=1;orthogonalLoop=1;jettySize=auto;html=1;entryX=0;entryY=0.5;entryDx=0;entryDy=0;fontFamily=Helvetica;fontSize=9;fontColor=default;fillColor=#d5e8d4;strokeColor=#82b366;curved=0;" edge="1" parent="1" source="OZHb4zPASjDrgLWmTo2S-90" target="OZHb4zPASjDrgLWmTo2S-14">
          <mxGeometry relative="1" as="geometry" />
        </mxCell>
        <mxCell id="OZHb4zPASjDrgLWmTo2S-130" style="edgeStyle=orthogonalEdgeStyle;rounded=1;orthogonalLoop=1;jettySize=auto;html=1;entryX=0;entryY=0.5;entryDx=0;entryDy=0;fontFamily=Helvetica;fontSize=9;fontColor=default;endArrow=none;endFill=0;fillColor=#d5e8d4;strokeColor=#82b366;curved=0;" edge="1" parent="1" source="OZHb4zPASjDrgLWmTo2S-90" target="OZHb4zPASjDrgLWmTo2S-7">
          <mxGeometry relative="1" as="geometry" />
        </mxCell>
        <mxCell id="OZHb4zPASjDrgLWmTo2S-90" value="&lt;h1 style=&quot;border-color: var(--border-color); font-size: 10px;&quot;&gt;&lt;font style=&quot;border-color: var(--border-color);&quot;&gt;[ Emit ]&amp;nbsp;&lt;br style=&quot;border-color: var(--border-color);&quot;&gt;&lt;/font&gt;deleteTodo&lt;/h1&gt;" style="swimlane;fontStyle=0;childLayout=stackLayout;horizontal=1;startSize=30;horizontalStack=0;resizeParent=1;resizeParentMax=0;resizeLast=0;collapsible=1;marginBottom=0;whiteSpace=wrap;html=1;swimlaneFillColor=none;rounded=1;fillColor=#d5e8d4;strokeColor=#82b366;" vertex="1" parent="1">
          <mxGeometry x="700" y="580" width="80" height="60" as="geometry">
            <mxRectangle x="720" y="727" width="90" height="50" as="alternateBounds" />
          </mxGeometry>
        </mxCell>
        <mxCell id="OZHb4zPASjDrgLWmTo2S-91" value="&lt;h1 style=&quot;border-color: var(--border-color); font-size: 9px;&quot;&gt;idx : item 순번&lt;/h1&gt;" style="text;strokeColor=none;fillColor=none;align=left;verticalAlign=middle;spacingLeft=4;spacingRight=4;overflow=hidden;points=[[0,0.5],[1,0.5]];portConstraint=eastwest;rotatable=0;whiteSpace=wrap;html=1;rounded=1;fontSize=9;horizontal=1;" vertex="1" parent="OZHb4zPASjDrgLWmTo2S-90">
          <mxGeometry y="30" width="80" height="30" as="geometry" />
        </mxCell>
        <mxCell id="OZHb4zPASjDrgLWmTo2S-96" value="&lt;h1 style=&quot;border-color: var(--border-color); font-size: 10px;&quot;&gt;&lt;font style=&quot;border-color: var(--border-color);&quot;&gt;[ Emit ]&amp;nbsp;&lt;br style=&quot;border-color: var(--border-color);&quot;&gt;&lt;/font&gt;deleteTodo&lt;/h1&gt;" style="swimlane;fontStyle=0;childLayout=stackLayout;horizontal=1;startSize=30;horizontalStack=0;resizeParent=1;resizeParentMax=0;resizeLast=0;collapsible=1;marginBottom=0;whiteSpace=wrap;html=1;swimlaneFillColor=none;rounded=1;fillColor=#d5e8d4;strokeColor=#82b366;" vertex="1" parent="1">
          <mxGeometry x="860" y="350" width="80" height="60" as="geometry">
            <mxRectangle x="720" y="727" width="90" height="50" as="alternateBounds" />
          </mxGeometry>
        </mxCell>
        <mxCell id="OZHb4zPASjDrgLWmTo2S-97" value="&lt;h1 style=&quot;border-color: var(--border-color); font-size: 9px;&quot;&gt;idx : item 순번&lt;/h1&gt;" style="text;strokeColor=none;fillColor=none;align=left;verticalAlign=middle;spacingLeft=4;spacingRight=4;overflow=hidden;points=[[0,0.5],[1,0.5]];portConstraint=eastwest;rotatable=0;whiteSpace=wrap;html=1;rounded=1;fontSize=9;horizontal=1;" vertex="1" parent="OZHb4zPASjDrgLWmTo2S-96">
          <mxGeometry y="30" width="80" height="30" as="geometry" />
        </mxCell>
        <mxCell id="OZHb4zPASjDrgLWmTo2S-98" value="&lt;h1 style=&quot;border-color: var(--border-color); font-size: 10px;&quot;&gt;&lt;font style=&quot;border-color: var(--border-color);&quot;&gt;Porps&lt;/font&gt;&lt;br&gt;&lt;/h1&gt;" style="swimlane;fontStyle=0;childLayout=stackLayout;horizontal=1;startSize=30;horizontalStack=0;resizeParent=1;resizeParentMax=0;resizeLast=0;collapsible=1;marginBottom=0;whiteSpace=wrap;html=1;swimlaneFillColor=none;rounded=1;fillColor=#f8cecc;strokeColor=#b85450;" vertex="1" parent="1">
          <mxGeometry x="860" y="440" width="80" height="60" as="geometry">
            <mxRectangle x="720" y="727" width="90" height="50" as="alternateBounds" />
          </mxGeometry>
        </mxCell>
        <mxCell id="OZHb4zPASjDrgLWmTo2S-99" value="&lt;h1 style=&quot;border-color: var(--border-color); font-size: 9px;&quot;&gt;todos : 할일목록&lt;/h1&gt;" style="text;strokeColor=none;fillColor=none;align=left;verticalAlign=middle;spacingLeft=4;spacingRight=4;overflow=hidden;points=[[0,0.5],[1,0.5]];portConstraint=eastwest;rotatable=0;whiteSpace=wrap;html=1;rounded=1;fontSize=9;horizontal=1;" vertex="1" parent="OZHb4zPASjDrgLWmTo2S-98">
          <mxGeometry y="30" width="80" height="30" as="geometry" />
        </mxCell>
        <mxCell id="OZHb4zPASjDrgLWmTo2S-127" style="edgeStyle=orthogonalEdgeStyle;rounded=1;orthogonalLoop=1;jettySize=auto;html=1;entryX=1;entryY=0.75;entryDx=0;entryDy=0;fontFamily=Helvetica;fontSize=9;fontColor=default;endArrow=none;endFill=0;fillColor=#f8cecc;strokeColor=#b85450;curved=0;" edge="1" parent="1" source="OZHb4zPASjDrgLWmTo2S-101" target="OZHb4zPASjDrgLWmTo2S-14">
          <mxGeometry relative="1" as="geometry" />
        </mxCell>
        <mxCell id="OZHb4zPASjDrgLWmTo2S-101" value="&lt;h1 style=&quot;border-color: var(--border-color); font-size: 10px;&quot;&gt;&lt;font style=&quot;border-color: var(--border-color);&quot;&gt;Porps&lt;/font&gt;&lt;br&gt;&lt;/h1&gt;" style="swimlane;fontStyle=0;childLayout=stackLayout;horizontal=1;startSize=30;horizontalStack=0;resizeParent=1;resizeParentMax=0;resizeLast=0;collapsible=1;marginBottom=0;whiteSpace=wrap;html=1;swimlaneFillColor=none;rounded=1;fillColor=#f8cecc;strokeColor=#b85450;" vertex="1" parent="1">
          <mxGeometry x="886" y="580" width="80" height="60" as="geometry">
            <mxRectangle x="720" y="727" width="90" height="50" as="alternateBounds" />
          </mxGeometry>
        </mxCell>
        <mxCell id="OZHb4zPASjDrgLWmTo2S-102" value="&lt;h1 style=&quot;border-color: var(--border-color); font-size: 9px;&quot;&gt;todos : 할일목록&lt;/h1&gt;" style="text;strokeColor=none;fillColor=none;align=left;verticalAlign=middle;spacingLeft=4;spacingRight=4;overflow=hidden;points=[[0,0.5],[1,0.5]];portConstraint=eastwest;rotatable=0;whiteSpace=wrap;html=1;rounded=1;fontSize=9;horizontal=1;" vertex="1" parent="OZHb4zPASjDrgLWmTo2S-101">
          <mxGeometry y="30" width="80" height="30" as="geometry" />
        </mxCell>
        <mxCell id="OZHb4zPASjDrgLWmTo2S-107" value="&lt;h1 style=&quot;border-color: var(--border-color); font-size: 10px;&quot;&gt;&lt;font style=&quot;border-color: var(--border-color);&quot;&gt;[ Emit ]&amp;nbsp;&lt;br style=&quot;border-color: var(--border-color);&quot;&gt;&lt;/font&gt;createTodo&lt;/h1&gt;" style="swimlane;fontStyle=0;childLayout=stackLayout;horizontal=1;startSize=30;horizontalStack=0;resizeParent=1;resizeParentMax=0;resizeLast=0;collapsible=1;marginBottom=0;whiteSpace=wrap;html=1;swimlaneFillColor=none;rounded=1;fillColor=#d5e8d4;strokeColor=#82b366;" vertex="1" parent="1">
          <mxGeometry x="380" y="410" width="90" height="80" as="geometry">
            <mxRectangle x="720" y="727" width="90" height="50" as="alternateBounds" />
          </mxGeometry>
        </mxCell>
        <mxCell id="OZHb4zPASjDrgLWmTo2S-108" value="&lt;h1 style=&quot;border-color: var(--border-color); font-size: 10px;&quot;&gt;&lt;font style=&quot;border-color: var(--border-color); font-weight: normal;&quot;&gt;&lt;font style=&quot;border-color: var(--border-color);&quot;&gt;text : todo 메모&lt;br style=&quot;border-color: var(--border-color);&quot;&gt;&lt;/font&gt;done : 완료 여부&lt;br style=&quot;border-color: var(--border-color);&quot;&gt;dttm : todo 시간&lt;/font&gt;&lt;/h1&gt;" style="text;strokeColor=none;fillColor=none;align=left;verticalAlign=middle;spacingLeft=4;spacingRight=4;overflow=hidden;points=[[0,0.5],[1,0.5]];portConstraint=eastwest;rotatable=0;whiteSpace=wrap;html=1;rounded=1;fontSize=9;horizontal=1;" vertex="1" parent="OZHb4zPASjDrgLWmTo2S-107">
          <mxGeometry y="30" width="90" height="50" as="geometry" />
        </mxCell>
        <mxCell id="OZHb4zPASjDrgLWmTo2S-136" style="edgeStyle=orthogonalEdgeStyle;rounded=1;orthogonalLoop=1;jettySize=auto;html=1;entryX=1;entryY=0.5;entryDx=0;entryDy=0;fontFamily=Helvetica;fontSize=9;fontColor=default;curved=0;fillColor=#f8cecc;strokeColor=#b85450;" edge="1" parent="1" source="OZHb4zPASjDrgLWmTo2S-116" target="OZHb4zPASjDrgLWmTo2S-12">
          <mxGeometry relative="1" as="geometry" />
        </mxCell>
        <mxCell id="OZHb4zPASjDrgLWmTo2S-116" value="&lt;h1 style=&quot;border-color: var(--border-color); font-size: 10px;&quot;&gt;&lt;font style=&quot;border-color: var(--border-color);&quot;&gt;Porps&lt;/font&gt;&lt;br&gt;&lt;/h1&gt;" style="swimlane;fontStyle=0;childLayout=stackLayout;horizontal=1;startSize=30;horizontalStack=0;resizeParent=1;resizeParentMax=0;resizeLast=0;collapsible=1;marginBottom=0;whiteSpace=wrap;html=1;swimlaneFillColor=none;rounded=1;fillColor=#f8cecc;strokeColor=#b85450;" vertex="1" parent="1">
          <mxGeometry x="690" y="456" width="80" height="60" as="geometry">
            <mxRectangle x="720" y="727" width="90" height="50" as="alternateBounds" />
          </mxGeometry>
        </mxCell>
        <mxCell id="OZHb4zPASjDrgLWmTo2S-117" value="&lt;h1 style=&quot;border-color: var(--border-color); font-size: 9px;&quot;&gt;todos : 할일목록&lt;/h1&gt;" style="text;strokeColor=none;fillColor=none;align=left;verticalAlign=middle;spacingLeft=4;spacingRight=4;overflow=hidden;points=[[0,0.5],[1,0.5]];portConstraint=eastwest;rotatable=0;whiteSpace=wrap;html=1;rounded=1;fontSize=9;horizontal=1;" vertex="1" parent="OZHb4zPASjDrgLWmTo2S-116">
          <mxGeometry y="30" width="80" height="30" as="geometry" />
        </mxCell>
        <mxCell id="OZHb4zPASjDrgLWmTo2S-121" style="edgeStyle=orthogonalEdgeStyle;rounded=1;orthogonalLoop=1;jettySize=auto;html=1;entryX=0.594;entryY=1.027;entryDx=0;entryDy=0;entryPerimeter=0;fontFamily=Helvetica;fontSize=9;fontColor=default;exitX=0.5;exitY=0;exitDx=0;exitDy=0;curved=0;endArrow=none;endFill=0;fillColor=#f8cecc;strokeColor=#b85450;" edge="1" parent="1" source="OZHb4zPASjDrgLWmTo2S-98" target="OZHb4zPASjDrgLWmTo2S-10">
          <mxGeometry relative="1" as="geometry">
            <Array as="points">
              <mxPoint x="900" y="420" />
              <mxPoint x="646" y="420" />
            </Array>
          </mxGeometry>
        </mxCell>
        <mxCell id="OZHb4zPASjDrgLWmTo2S-122" style="edgeStyle=orthogonalEdgeStyle;rounded=1;orthogonalLoop=1;jettySize=auto;html=1;exitX=0.5;exitY=1;exitDx=0;exitDy=0;entryX=0.679;entryY=-0.002;entryDx=0;entryDy=0;entryPerimeter=0;fontFamily=Helvetica;fontSize=9;fontColor=default;endArrow=classic;endFill=1;curved=0;fillColor=#f8cecc;strokeColor=#b85450;" edge="1" parent="1" source="OZHb4zPASjDrgLWmTo2S-98" target="OZHb4zPASjDrgLWmTo2S-14">
          <mxGeometry relative="1" as="geometry">
            <Array as="points">
              <mxPoint x="900" y="510" />
              <mxPoint x="856" y="510" />
            </Array>
          </mxGeometry>
        </mxCell>
        <mxCell id="OZHb4zPASjDrgLWmTo2S-124" style="edgeStyle=orthogonalEdgeStyle;rounded=1;orthogonalLoop=1;jettySize=auto;html=1;exitX=1;exitY=0.5;exitDx=0;exitDy=0;fontFamily=Helvetica;fontSize=9;fontColor=default;endArrow=none;endFill=0;fillColor=#d5e8d4;strokeColor=#82b366;curved=0;" edge="1" parent="1" source="OZHb4zPASjDrgLWmTo2S-14">
          <mxGeometry relative="1" as="geometry">
            <mxPoint x="940" y="380" as="targetPoint" />
            <Array as="points">
              <mxPoint x="960" y="545" />
              <mxPoint x="960" y="380" />
              <mxPoint x="940" y="380" />
            </Array>
          </mxGeometry>
        </mxCell>
        <mxCell id="OZHb4zPASjDrgLWmTo2S-125" style="edgeStyle=orthogonalEdgeStyle;rounded=1;orthogonalLoop=1;jettySize=auto;html=1;exitX=0;exitY=0.5;exitDx=0;exitDy=0;entryX=0.725;entryY=1.004;entryDx=0;entryDy=0;entryPerimeter=0;fontFamily=Helvetica;fontSize=9;fontColor=default;fillColor=#d5e8d4;strokeColor=#82b366;curved=0;" edge="1" parent="1" source="OZHb4zPASjDrgLWmTo2S-96" target="OZHb4zPASjDrgLWmTo2S-10">
          <mxGeometry relative="1" as="geometry">
            <Array as="points">
              <mxPoint x="840" y="380" />
              <mxPoint x="840" y="410" />
              <mxPoint x="662" y="410" />
            </Array>
          </mxGeometry>
        </mxCell>
        <mxCell id="OZHb4zPASjDrgLWmTo2S-128" style="edgeStyle=orthogonalEdgeStyle;rounded=1;orthogonalLoop=1;jettySize=auto;html=1;exitX=0.5;exitY=1;exitDx=0;exitDy=0;entryX=1;entryY=0.56;entryDx=0;entryDy=0;entryPerimeter=0;fontFamily=Helvetica;fontSize=9;fontColor=default;fillColor=#f8cecc;strokeColor=#b85450;curved=0;" edge="1" parent="1" source="OZHb4zPASjDrgLWmTo2S-101" target="OZHb4zPASjDrgLWmTo2S-7">
          <mxGeometry relative="1" as="geometry" />
        </mxCell>
        <mxCell id="OZHb4zPASjDrgLWmTo2S-131" style="edgeStyle=orthogonalEdgeStyle;rounded=1;orthogonalLoop=1;jettySize=auto;html=1;entryX=0.328;entryY=0;entryDx=0;entryDy=0;entryPerimeter=0;fontFamily=Helvetica;fontSize=9;fontColor=default;curved=0;endArrow=none;endFill=0;fillColor=#d5e8d4;strokeColor=#82b366;" edge="1" parent="1" source="OZHb4zPASjDrgLWmTo2S-107" target="OZHb4zPASjDrgLWmTo2S-13">
          <mxGeometry relative="1" as="geometry" />
        </mxCell>
        <mxCell id="OZHb4zPASjDrgLWmTo2S-132" style="edgeStyle=orthogonalEdgeStyle;rounded=1;orthogonalLoop=1;jettySize=auto;html=1;exitX=1;exitY=0.25;exitDx=0;exitDy=0;entryX=0.417;entryY=0.973;entryDx=0;entryDy=0;entryPerimeter=0;fontFamily=Helvetica;fontSize=9;fontColor=default;curved=0;fillColor=#d5e8d4;strokeColor=#82b366;" edge="1" parent="1" source="OZHb4zPASjDrgLWmTo2S-107" target="OZHb4zPASjDrgLWmTo2S-10">
          <mxGeometry relative="1" as="geometry" />
        </mxCell>
        <mxCell id="OZHb4zPASjDrgLWmTo2S-133" style="edgeStyle=orthogonalEdgeStyle;rounded=1;orthogonalLoop=1;jettySize=auto;html=1;entryX=0.548;entryY=0.996;entryDx=0;entryDy=0;entryPerimeter=0;fontFamily=Helvetica;fontSize=9;fontColor=default;endArrow=none;endFill=0;curved=0;fillColor=#f8cecc;strokeColor=#b85450;" edge="1" parent="1" source="OZHb4zPASjDrgLWmTo2S-116" target="OZHb4zPASjDrgLWmTo2S-10">
          <mxGeometry relative="1" as="geometry">
            <Array as="points">
              <mxPoint x="730" y="430" />
              <mxPoint x="641" y="430" />
            </Array>
          </mxGeometry>
        </mxCell>
        <mxCell id="OZHb4zPASjDrgLWmTo2S-142" style="edgeStyle=orthogonalEdgeStyle;rounded=1;orthogonalLoop=1;jettySize=auto;html=1;entryX=0;entryY=0.5;entryDx=0;entryDy=0;fontFamily=Helvetica;fontSize=9;fontColor=default;fillColor=#f8cecc;strokeColor=#b85450;curved=0;" edge="1" parent="1" source="OZHb4zPASjDrgLWmTo2S-139" target="OZHb4zPASjDrgLWmTo2S-8">
          <mxGeometry relative="1" as="geometry" />
        </mxCell>
        <mxCell id="OZHb4zPASjDrgLWmTo2S-143" style="edgeStyle=orthogonalEdgeStyle;rounded=1;orthogonalLoop=1;jettySize=auto;html=1;exitX=0.5;exitY=0;exitDx=0;exitDy=0;entryX=0;entryY=0.5;entryDx=0;entryDy=0;fontFamily=Helvetica;fontSize=9;fontColor=default;endArrow=none;endFill=0;fillColor=#f8cecc;strokeColor=#b85450;curved=0;" edge="1" parent="1" source="OZHb4zPASjDrgLWmTo2S-139" target="OZHb4zPASjDrgLWmTo2S-9">
          <mxGeometry relative="1" as="geometry" />
        </mxCell>
        <mxCell id="OZHb4zPASjDrgLWmTo2S-139" value="&lt;h1 style=&quot;border-color: var(--border-color); font-size: 10px;&quot;&gt;&lt;font style=&quot;border-color: var(--border-color);&quot;&gt;Porps&lt;/font&gt;&lt;br&gt;&lt;/h1&gt;" style="swimlane;fontStyle=0;childLayout=stackLayout;horizontal=1;startSize=30;horizontalStack=0;resizeParent=1;resizeParentMax=0;resizeLast=0;collapsible=1;marginBottom=0;whiteSpace=wrap;html=1;swimlaneFillColor=none;rounded=1;fillColor=#f8cecc;strokeColor=#b85450;" vertex="1" parent="1">
          <mxGeometry x="185" y="420" width="80" height="60" as="geometry">
            <mxRectangle x="720" y="727" width="90" height="50" as="alternateBounds" />
          </mxGeometry>
        </mxCell>
        <mxCell id="OZHb4zPASjDrgLWmTo2S-140" value="&lt;h1 style=&quot;border-color: var(--border-color); font-size: 9px;&quot;&gt;todo : 할일&lt;/h1&gt;" style="text;strokeColor=none;fillColor=none;align=left;verticalAlign=middle;spacingLeft=4;spacingRight=4;overflow=hidden;points=[[0,0.5],[1,0.5]];portConstraint=eastwest;rotatable=0;whiteSpace=wrap;html=1;rounded=1;fontSize=9;horizontal=1;" vertex="1" parent="OZHb4zPASjDrgLWmTo2S-139">
          <mxGeometry y="30" width="80" height="30" as="geometry" />
        </mxCell>
        <mxCell id="OZHb4zPASjDrgLWmTo2S-153" value="" style="group" vertex="1" connectable="0" parent="1">
          <mxGeometry x="50" y="650" width="200" height="130" as="geometry" />
        </mxCell>
        <mxCell id="OZHb4zPASjDrgLWmTo2S-73" value="" style="rounded=1;whiteSpace=wrap;html=1;fillColor=#f5f5f5;strokeWidth=1;fontColor=#333333;strokeColor=#666666;" vertex="1" parent="OZHb4zPASjDrgLWmTo2S-153">
          <mxGeometry width="200" height="130" as="geometry" />
        </mxCell>
        <mxCell id="OZHb4zPASjDrgLWmTo2S-145" value="" style="endArrow=classic;html=1;rounded=0;fontFamily=Helvetica;fontSize=9;fontColor=default;entryX=0.453;entryY=0.294;entryDx=0;entryDy=0;entryPerimeter=0;strokeWidth=2;fillColor=#f8cecc;strokeColor=#b85450;" edge="1" parent="OZHb4zPASjDrgLWmTo2S-153">
          <mxGeometry width="50" height="50" relative="1" as="geometry">
            <mxPoint x="15" y="31.019999999999996" as="sourcePoint" />
            <mxPoint x="110.04499999999996" y="31.000000000000014" as="targetPoint" />
          </mxGeometry>
        </mxCell>
        <mxCell id="OZHb4zPASjDrgLWmTo2S-146" value="" style="endArrow=classic;html=1;rounded=0;fontFamily=Helvetica;fontSize=9;fontColor=default;entryX=0.453;entryY=0.294;entryDx=0;entryDy=0;entryPerimeter=0;strokeWidth=2;fillColor=#d5e8d4;strokeColor=#82b366;" edge="1" parent="OZHb4zPASjDrgLWmTo2S-153">
          <mxGeometry width="50" height="50" relative="1" as="geometry">
            <mxPoint x="15" y="66" as="sourcePoint" />
            <mxPoint x="110" y="66" as="targetPoint" />
          </mxGeometry>
        </mxCell>
        <mxCell id="OZHb4zPASjDrgLWmTo2S-147" value="" style="endArrow=classic;html=1;rounded=0;fontFamily=Helvetica;fontSize=9;fontColor=default;entryX=0.453;entryY=0.294;entryDx=0;entryDy=0;entryPerimeter=0;strokeWidth=2;dashed=1;fillColor=#e1d5e7;strokeColor=#9673a6;" edge="1" parent="OZHb4zPASjDrgLWmTo2S-153">
          <mxGeometry width="50" height="50" relative="1" as="geometry">
            <mxPoint x="15" y="104" as="sourcePoint" />
            <mxPoint x="110" y="104" as="targetPoint" />
          </mxGeometry>
        </mxCell>
        <mxCell id="OZHb4zPASjDrgLWmTo2S-151" value="&lt;div style=&quot;text-align: left; font-size: 15px;&quot;&gt;&lt;span style=&quot;background-color: initial;&quot;&gt;&lt;font style=&quot;font-size: 15px;&quot;&gt;Props&lt;/font&gt;&lt;/span&gt;&lt;/div&gt;&lt;div style=&quot;text-align: left; font-size: 15px;&quot;&gt;&lt;span style=&quot;background-color: initial;&quot;&gt;&lt;font style=&quot;font-size: 15px;&quot;&gt;&lt;br&gt;&lt;/font&gt;&lt;/span&gt;&lt;/div&gt;&lt;div style=&quot;text-align: left; font-size: 15px;&quot;&gt;&lt;span style=&quot;background-color: initial;&quot;&gt;&lt;font style=&quot;font-size: 15px;&quot;&gt;Emit&amp;nbsp;&lt;/font&gt;&lt;/span&gt;&lt;/div&gt;&lt;div style=&quot;text-align: left; font-size: 15px;&quot;&gt;&lt;span style=&quot;background-color: initial;&quot;&gt;&lt;font style=&quot;font-size: 15px;&quot;&gt;&lt;br&gt;&lt;/font&gt;&lt;/span&gt;&lt;/div&gt;&lt;div style=&quot;text-align: left; font-size: 15px;&quot;&gt;&lt;span style=&quot;background-color: initial;&quot;&gt;&lt;font style=&quot;font-size: 15px;&quot;&gt;import&lt;/font&gt;&lt;/span&gt;&lt;/div&gt;" style="text;html=1;strokeColor=none;fillColor=none;align=center;verticalAlign=middle;whiteSpace=wrap;rounded=0;fontSize=9;fontFamily=Helvetica;fontColor=default;" vertex="1" parent="OZHb4zPASjDrgLWmTo2S-153">
          <mxGeometry x="130" y="15" width="60" height="100" as="geometry" />
        </mxCell>
      </root>
    </mxGraphModel>
  </diagram>
</mxfile>
